<svg xmlns="http://www.w3.org/2000/svg" viewBox="0 0 19.02 23.78"><g id="Layer_2" data-name="Layer 2"><g id="Layer_1-2" data-name="Layer 1"><path id="db" d="M9.51,0C4.25,0,0,1.58,0,4.08V19.26c0,2.5,4.25,4.52,9.51,4.52s9.51-2,9.51-4.52V4.08C19,1.58,14.76,0,9.51,0Zm.06,1.5c4.36,0,7.9,1.15,7.9,2.58s-3.54,2.58-7.9,2.58S1.65,5.51,1.65,4.08,5.19,1.5,9.57,1.5ZM17.48,7V10.1a4.94,4.94,0,0,1-.81.49,6.32,6.32,0,0,1-.63.26,16.9,16.9,0,0,1-4.59.86l-.93,0-1,0c-.47,0-.94,0-1.39,0a17.57,17.57,0,0,1-5.09-.88,6,6,0,0,1-.72-.31,3.51,3.51,0,0,1-.7-.43V7a3.51,3.51,0,0,0,.7.43,6,6,0,0,0,.72.3,19.92,19.92,0,0,0,6.48.93A19.85,19.85,0,0,0,16,7.7a4.59,4.59,0,0,0,.63-.26A3.86,3.86,0,0,0,17.48,7Zm0,12.23A1.15,1.15,0,0,1,17,20c-1.07,1-4,2-7.47,2s-6.4-1-7.47-2a1.15,1.15,0,0,1-.44-.85v-2a3.51,3.51,0,0,0,.7.43,6,6,0,0,0,.72.3,20,20,0,0,0,6.48.92A19.88,19.88,0,0,0,16,17.94a4.59,4.59,0,0,0,.63-.26,4.34,4.34,0,0,0,.81-.49Zm0-4.84a.17.17,0,0,1,0,.07v.84a4.94,4.94,0,0,1-.81.49A6.32,6.32,0,0,1,16,16a17.29,17.29,0,0,1-4.54.86h-.05l-.93.05-1,0c-.47,0-.94,0-1.39,0A17.57,17.57,0,0,1,3.08,16a6,6,0,0,1-.72-.31,3.51,3.51,0,0,1-.7-.43v-3a.17.17,0,0,0,0,.07v-.17a3.51,3.51,0,0,0,.7.43,7.07,7.07,0,0,0,.72.31,20,20,0,0,0,6.48.92,19.88,19.88,0,0,0,6.48-.93c.23-.09.44-.17.63-.26a4.34,4.34,0,0,0,.81-.5Z"/></g></g></svg>