<svg xmlns="http://www.w3.org/2000/svg" viewBox="0 0 25.85 25.84"><g id="Layer_2" data-name="Layer 2"><g id="Layer_1-2" data-name="Layer 1"><path d="M25.62,10.07,23.3,7.74a.74.74,0,0,0-.81-.16l-2.15.86.86-2.15A.78.78,0,0,0,21,5.47L15.78.22a.77.77,0,0,0-1.07,0l-7,7a3.8,3.8,0,0,0,0,5.35l.4.4A.76.76,0,0,1,8,14.12C5.33,16.05,2,18.53,1.11,19.38a3.79,3.79,0,0,0,5.35,5.36c.85-.86,3.34-4.23,5.27-6.91a.76.76,0,0,1,1.15-.09l.39.39a3.79,3.79,0,0,0,5.36,0l7-7A.73.73,0,0,0,25.62,10.07Zm-11.28,7L14,16.67a2.28,2.28,0,0,0-3.45.27C7.85,20.62,6,23.07,5.39,23.67a2.27,2.27,0,1,1-3.21-3.22c.6-.6,3.05-2.46,6.72-5.1a2.27,2.27,0,0,0,.28-3.45l-.4-.4a2.28,2.28,0,0,1,0-3.21l.1-.1L17.66,17l-.1.1a2.28,2.28,0,0,1-3.22,0ZM24,10.61l-5.28,5.28L10,7.12l5.29-5.29,4.37,4.36L18.28,9.51a.76.76,0,0,0,1,1l3.32-1.33.13.12Z"/></g></g></svg>